<svg id="Layer_1" enable-background="new 0 0 496.087 496.087" height="512" viewBox="0 0 496.087 496.087" width="512" xmlns="http://www.w3.org/2000/svg"><path d="m470.384 285.605v39.321c0 94.484-76.595 171.079-171.079 171.079-111.168 0-112.539.77-131.261-2.4-80.8-13.64-142.34-83.95-142.34-168.63v-205.25c0-23.606 19.13-42.75 42.75-42.75s42.76 19.14 42.76 42.75v-34.2c0-28.317 22.95-51.31 51.31-51.31 28.34 0 51.31 22.97 51.31 51.31v-34.21c0-28.339 22.969-51.31 51.31-51.31 28.34 0 51.31 22.97 51.31 51.31 0-14.17 5.74-27 15.03-36.28 32.522-32.557 87.59-8.604 87.59 37.234 0 126.93.028 119.423-.059 121.209-.005.1-2.769-4.907 36.149 58.337 9.95 16.18 15.22 34.799 15.22 53.79z" fill="#f9cfac"/><g fill="#ffe4cc"><path d="m316.453 51.315v78.07h-84.62v-117.1c32.839-28.074 84.62-5.065 84.62 39.03z"/><path d="m213.833 85.525v43.86h-8.55c-27.084 0-51.998 21.852-50.06 55.43 1.28 23.11 11.05 44 26.24 59.59-3.32 1.31-6.81 2.29-10.42 2.9-24.3-4.04-42.83-25.16-42.83-50.61v-149.32c32.716-29.441 85.62-6.35 85.62 38.15z"/><path d="m111.213 119.725v102.62c0 21.24-15.47 38.85-35.76 42.19-20.28-3.34-35.75-20.95-35.75-42.19v-134.251c27.138-24.705 71.51-5.653 71.51 31.631z"/><path d="m419.073 51.315v98.82c-15.19-13.14-34.87-20.75-55.33-20.75h-27.29v-118.721c33.165-25.619 82.62-2.335 82.62 40.651z"/><path d="m470.384 285.605v39.37c0 54.76-25.74 103.51-65.77 134.81-23.82 12.59-50.99 19.72-79.81 19.72h-102.57c-94.088 0-171.03-76.204-171.03-171.03v-29.96c27.123 8.345 56.324-3.931 69.43-29.18 11.5 9.18 26.06 14.67 41.89 14.67 14.532 0 23.354-4.135 32.8-7.88 27.349 18.901 51.186 16.43 76.09 16.43-36.8 27.47-61.53 70.25-64.68 118.81-.266 4.794 3.476 8.43 7.86 8.51 4.26.07 7.84-3.21 8.11-7.46 4.91-75.85 67.97-135.86 145.06-135.86h-119.72c-42.506 0-76.97-34.439-76.97-76.96 0-18.9 15.32-34.21 34.21-34.21h158.46c23.76 0 45.82 12.32 58.27 32.56l33.15 53.87c9.95 16.18 15.22 34.799 15.22 53.79z"/></g></svg>