<svg id="Layer_1" enable-background="new 0 0 495.94 495.94" height="512" viewBox="0 0 495.94 495.94" width="512" xmlns="http://www.w3.org/2000/svg"><path d="m414.737 59.98c-9.506 35.485-37.731 140.829-47.91 178.82 7.916 7.916 17.505 16.97 25.14 34.56 10.074 23.076 8 35.689 8 90.58 0 72.9-59.1 132-132 132h-56c-73.09 0-132-59.299-132-132 0-67.439 0 122.105 0-164 0-17.679 14.319-32 32-32 17.67 0 32 14.33 32 32v-28c0-23.894 22.868-41.234 46.05-34.57-22.259-83.059-16.843-62.848-24.68-92.1-2.57-9.6-1.01-19.34 3.59-27.32 15.959-27.566 57.645-22.318 65.96 8.68 4.97 18.558.049.192 48.58 181.31h17.08c2.033-7.585 41.99-156.703 44.64-166.59 5.15-19.21 24.89-30.6 44.09-25.46 19.187 5.137 30.611 24.851 25.46 44.09z" fill="#f9cfac"/><g fill="#ffe4cc"><path d="m231.967 191.94v-20c0-19.46-10.74-36.45-26.6-45.36l-31.9-114.83c18.755-20.723 53.951-12.968 61.42 14.88 6.051 22.596-1.665-6.205 44.29 165.31z"/><path d="m414.737 59.98c-9.648 36.012-34.218 127.716-43.13 160.98-10.053-10.066-26.498-29.02-58.84-29.02h-7.93c7.251-27.061 35.665-133.106 40.35-150.59 5.15-19.21 24.89-30.6 44.09-25.46 19.187 5.137 30.611 24.851 25.46 44.09z"/><path d="m199.967 223.94c0 16.58 5.64 31.87 15.1 44.06-3.086 13.445-13.64 23.99-27.1 27.05-16.03-3.64-28-17.98-28-35.11v-117.94c23.599-15.802 56 .967 56 29.94v24.29c-9.606 5.523-16 15.877-16 27.71z"/><path d="m143.967 199.94v72c0 14.896-10.185 27.45-24 30.99-13.8-3.55-24-16.08-24-30.99v-99.72c21.159-12.218 48 2.994 48 27.72z"/><path d="m399.967 363.94c0 40.66-18.38 77.02-47.29 101.24-18.17 9.43-38.82 14.76-60.71 14.76h-56c-72.562 0-132-58.78-132-132v-28.67c16.96 2.87 34.302-3.539 45.36-17.22.078-.116.057-.072.12-.04 26.695 19.469 64.824 9.263 78.21-21.36 22.03 17.283 42.074 15.29 62.28 15.29-50.238 18.07-86.203 64.507-89.69 119.3-.275 4.664 3.374 8.339 7.76 8.47 4.32.13 7.93-3.21 8.21-7.53 3.667-57.181 47.409-103.669 103.75-111.18 0-9.071-2.91-17.561-7.78-24.41-.59-.928 3.657-.65-40.22-.65-31.062 0-56-25.207-56-56 0-8.853 7.16-16 16-16h80.8c14.86 0 29.1 5.9 39.6 16.4 19.321 19.321 30.802 28.752 39.6 49.02 10.074 23.076 8 35.689 8 90.58z"/></g></svg>